HIERARCHY
ROOT hip
{
  OFFSET 0 0 0
  CHANNELS 6 Xposition Yposition Zposition Zrotation Yrotation Xrotation
  JOINT abdomen
  {
    OFFSET 0 20.6881 -0.73152
    CHANNELS 3 Zrotation Xrotation Yrotation
    JOINT chest
    {
      OFFSET 0 11.7043 -0.48768
      CHANNELS 3 Zrotation Xrotation Yrotation
      JOINT neck
      {
        OFFSET 0 22.1894 -2.19456
        CHANNELS 3 Zrotation Xrotation Yrotation
        JOINT head
        {
          OFFSET -0.24384 7.07133 1.2192
          CHANNELS 3 Zrotation Xrotation Yrotation
          JOINT leftEye
          {
            OFFSET 4.14528 8.04674 8.04672
            CHANNELS 3 Zrotation Xrotation Yrotation
            End Site
            {
              OFFSET 1 0 0
            }
          }
          JOINT rightEye
          {
            OFFSET -3.6576 8.04674 8.04672
            CHANNELS 3 Zrotation Xrotation Yrotation
            End Site
            {
              OFFSET 1 0 0
            }
          }
        }
      }
      JOINT rCollar
      {
        OFFSET -2.68224 19.2634 -4.8768
        CHANNELS 3 Zrotation Xrotation Yrotation
        JOINT rShldr
        {
          OFFSET -8.77824 -1.95073 1.46304
          CHANNELS 3 Zrotation Xrotation Yrotation
          JOINT rForeArm
          {
            OFFSET -28.1742 -1.7115 0.48768
            CHANNELS 3 Zrotation Xrotation Yrotation
            JOINT rHand
            {
              OFFSET -22.5879 0.773209 7.07136
              CHANNELS 3 Zrotation Xrotation Yrotation
              JOINT rThumb1
              {
                OFFSET -1.2192 -0.487915 3.41376
                CHANNELS 3 Zrotation Xrotation Yrotation
                JOINT rThumb2
                {
                  OFFSET -3.37035 -0.52449 3.41376
                  CHANNELS 3 Zrotation Xrotation Yrotation
                  End Site
                  {
                    OFFSET -1.78271 -1.18214 1.43049
                  }
                }
              }
              JOINT rIndex1
              {
                OFFSET -7.75947 0.938293 5.60832
                CHANNELS 3 Zrotation Xrotation Yrotation
                JOINT rIndex2
                {
                  OFFSET -2.54057 -0.884171 1.56538
                  CHANNELS 3 Zrotation Xrotation Yrotation
                  End Site
                  {
                    OFFSET -1.62519 -0.234802 1.16502
                  }
                }
              }
              JOINT rMid1
              {
                OFFSET -8.24714 1.18213 3.41376
                CHANNELS 3 Zrotation Xrotation Yrotation
                JOINT rMid2
                {
                  OFFSET -3.10165 -0.590103 1.0647
                  CHANNELS 3 Zrotation Xrotation Yrotation
                  End Site
                  {
                    OFFSET -2.48547 -0.328903 0.83742
                  }
                }
              }
              JOINT rRing1
              {
                OFFSET -8.82822 0.546677 1.51678
                CHANNELS 3 Zrotation Xrotation Yrotation
                JOINT rRing2
                {
                  OFFSET -2.60934 -0.819778 -0.0198488
                  CHANNELS 3 Zrotation Xrotation Yrotation
                  End Site
                  {
                    OFFSET -2.33842 -0.294052 0.168128
                  }
                }
              }
              JOINT rPinky1
              {
                OFFSET -8.27202 -0.0477905 -0.4584
                CHANNELS 3 Zrotation Xrotation Yrotation
                JOINT rPinky2
                {
                  OFFSET -1.82734 -0.647385 -0.700984
                  CHANNELS 3 Zrotation Xrotation Yrotation
                  End Site
                  {
                    OFFSET -1.69225 -0.51767 -0.607171
                  }
                }
              }
            }
          }
        }
      }
      JOINT lCollar
      {
        OFFSET 2.68224 19.2634 -4.8768
        CHANNELS 3 Zrotation Xrotation Yrotation
        JOINT lShldr
        {
          OFFSET 8.77824 -1.95073 1.46304
          CHANNELS 3 Zrotation Xrotation Yrotation
          JOINT lForeArm
          {
            OFFSET 28.1742 -1.7115 0.48768
            CHANNELS 3 Zrotation Xrotation Yrotation
            JOINT lHand
            {
              OFFSET 22.5879 0.773209 7.07136
              CHANNELS 3 Zrotation Xrotation Yrotation
              JOINT lThumb1
              {
                OFFSET 1.2192 -0.487915 3.41376
                CHANNELS 3 Zrotation Xrotation Yrotation
                JOINT lThumb2
                {
                  OFFSET 3.37035 -0.52449 3.41376
                  CHANNELS 3 Zrotation Xrotation Yrotation
                  End Site
                  {
                    OFFSET 1.78271 -1.18214 1.43049
                  }
                }
              }
              JOINT lIndex1
              {
                OFFSET 7.75947 0.938293 5.60832
                CHANNELS 3 Zrotation Xrotation Yrotation
                JOINT lIndex2
                {
                  OFFSET 2.54057 -0.884171 1.56538
                  CHANNELS 3 Zrotation Xrotation Yrotation
                  End Site
                  {
                    OFFSET 1.62519 -0.234802 1.16502
                  }
                }
              }
              JOINT lMid1
              {
                OFFSET 8.24714 1.18213 3.41376
                CHANNELS 3 Zrotation Xrotation Yrotation
                JOINT lMid2
                {
                  OFFSET 3.10165 -0.590103 1.0647
                  CHANNELS 3 Zrotation Xrotation Yrotation
                  End Site
                  {
                    OFFSET 2.48547 -0.328903 0.83742
                  }
                }
              }
              JOINT lRing1
              {
                OFFSET 8.82822 0.546677 1.51678
                CHANNELS 3 Zrotation Xrotation Yrotation
                JOINT lRing2
                {
                  OFFSET 2.60934 -0.819778 -0.0198488
                  CHANNELS 3 Zrotation Xrotation Yrotation
                  End Site
                  {
                    OFFSET 2.33842 -0.294052 0.168128
                  }
                }
              }
              JOINT lPinky1
              {
                OFFSET 8.27202 -0.0477905 -0.4584
                CHANNELS 3 Zrotation Xrotation Yrotation
                JOINT lPinky2
                {
                  OFFSET 1.82734 -0.647385 -0.700984
                  CHANNELS 3 Zrotation Xrotation Yrotation
                  End Site
                  {
                    OFFSET 1.69225 -0.51767 -0.607171
                  }
                }
              }
            }
          }
        }
      }
    }
  }
  JOINT rButtock
  {
    OFFSET -8.77824 4.35084 1.2192
    CHANNELS 3 Zrotation Xrotation Yrotation
    JOINT rThigh
    {
      OFFSET 0 -1.70687 -2.19456
      CHANNELS 3 Zrotation Xrotation Yrotation
      JOINT rShin
      {
        OFFSET 0 -36.8199 0.73152
        CHANNELS 3 Zrotation Xrotation Yrotation
        JOINT rFoot
        {
          OFFSET 0.73152 -45.1104 -5.12064
          CHANNELS 3 Zrotation Xrotation Yrotation
          End Site
          {
            OFFSET -1.1221 -3.69964 12.103
          }
        }
      }
    }
  }
  JOINT lButtock
  {
    OFFSET 8.77824 4.35084 1.2192
    CHANNELS 3 Zrotation Xrotation Yrotation
    JOINT lThigh
    {
      OFFSET 0 -1.70687 -2.19456
      CHANNELS 3 Zrotation Xrotation Yrotation
      JOINT lShin
      {
        OFFSET 0 -36.8199 0.73152
        CHANNELS 3 Zrotation Xrotation Yrotation
        JOINT lFoot
        {
          OFFSET -0.73152 -45.1104 -5.12064
          CHANNELS 3 Zrotation Xrotation Yrotation
          End Site
          {
            OFFSET 1.1221 -3.69964 12.103
          }
        }
      }
    }
  }
}
MOTION
Frames:	8
Frame Time:	0.00833333
51.6664 82.4559 38.9627 -7.8056 61.7438 -9.564 -4.92502 15.3164 -1.91234 4.99608 -5.3483 -0.465167 -11.5977 10.4104 -10.3497 27.1013 21.7635 -22.2209 -0.0 0.0 0.0 -0.0 0.0 0.0 8.52495e-14 -3.86604e-13 -5.37315e-13 81.4109 7.33869 -4.84384 -20.2392 -13.3155 39.2636 -0.00118748 -0.983929 -0.138296 3.01744e-09 6.29879e-09 -2.0811e-09 5.22367e-09 1.09212e-08 -3.61116e-09 3.01744e-09 6.29879e-09 -2.08111e-09 7.73091 5.47488 0.417314 3.01744e-09 6.29879e-09 -2.0811e-09 2.90554 0.965183 0.102902 3.01745e-09 6.29879e-09 -2.0811e-09 10.2786 0.731801 0.0259123 3.01743e-09 6.29879e-09 -2.0811e-09 2.22167 -0.733487 -0.20892 8.5214e-14 -3.86618e-13 -5.37713e-13 -76.539 25.2555 4.91046 16.1656 -8.84197 -30.0229 0.0176162 3.78643 -0.532932 2.06248e-09 2.02106e-09 -2.06367e-09 3.56047e-09 3.50358e-09 -3.58268e-09 2.06248e-09 2.02107e-09 -2.06366e-09 -7.73091 5.47488 -0.417314 2.06248e-09 2.02107e-09 -2.06367e-09 -2.90554 0.965183 -0.102902 2.06247e-09 2.02107e-09 -2.06367e-09 -10.2786 0.731801 -0.0259123 2.06248e-09 2.02107e-09 -2.06367e-09 -2.22167 -0.733487 0.20892 -2.03217e-16 0.0 -3.88251e-19 0.0762479 -22.7064 -8.10954 -0.267321 35.7351 0.548573 1.26024 -17.5838 4.40779 2.03217e-16 0.0 3.88251e-19 0.683031 -14.2651 -4.03395 0.220019 34.5107 -0.601388 -0.377261 -12.5097 -3.0376
51.432 82.5215 39.0936 -7.5013 61.1627 -9.1357 -5.04351 15.3672 -1.82399 4.97258 -5.34526 -0.446556 -11.6453 10.3352 -10.3505 27.0469 21.701 -22.2116 -0.0 0.0 0.0 -0.0 0.0 0.0 9.62784e-14 -3.70597e-13 -7.87033e-13 81.7377 7.25413 -4.99419 -20.1015 -13.1406 38.9246 -0.000489247 -0.709236 -0.0996796 3.95782e-09 8.49042e-09 -2.91389e-09 6.85025e-09 1.47249e-08 -5.05762e-09 3.95783e-09 8.49042e-09 -2.9139e-09 7.73091 5.47488 0.417314 3.95782e-09 8.49042e-09 -2.9139e-09 2.90554 0.965183 0.102902 3.95783e-09 8.49042e-09 -2.9139e-09 10.2786 0.731801 0.0259123 3.95782e-09 8.49042e-09 -2.91389e-09 2.22167 -0.733487 -0.20892 9.62584e-14 -3.70607e-13 -7.87424e-13 -76.1621 24.1078 4.37585 15.9333 -8.63175 -29.5178 0.0218522 4.41483 -0.621514 3.12096e-09 2.9007e-09 -2.61481e-09 5.38609e-09 5.02741e-09 -4.54581e-09 3.12095e-09 2.90071e-09 -2.6148e-09 -7.73091 5.47488 -0.417314 3.12096e-09 2.90071e-09 -2.61481e-09 -2.90554 0.965183 -0.102902 3.12094e-09 2.90071e-09 -2.6148e-09 -10.2786 0.731801 -0.0259123 3.12096e-09 2.9007e-09 -2.61481e-09 -2.22167 -0.733487 0.20892 -2.03217e-16 0.0 -3.88251e-19 -0.163821 -22.7704 -9.08906 -0.266249 35.9319 0.582656 0.150174 -17.4345 1.56595 2.03217e-16 0.0 3.88251e-19 0.784787 -14.212 -3.97263 0.215659 34.2968 -0.600488 -0.223989 -12.3368 -2.55769
51.1984 82.619 39.2748 -7.4978 60.5021 -9.1013 -5.07186 15.4544 -1.68289 4.8841 -5.3558 -0.412443 -11.6637 10.2674 -10.339 26.9348 21.6476 -22.1699 -0.0 0.0 0.0 -0.0 0.0 0.0 8.61637e-14 -2.46163e-13 -1.10054e-12 82.0652 7.17098 -5.15649 -19.9435 -12.9414 38.5407 -5.78648e-05 -0.384999 -0.054105 5.23668e-09 1.07566e-08 -3.85575e-09 9.06121e-09 1.8662e-08 -6.69445e-09 5.23669e-09 1.07566e-08 -3.85577e-09 7.73091 5.47488 0.417314 5.23668e-09 1.07566e-08 -3.85576e-09 2.90554 0.965183 0.102902 5.23669e-09 1.07566e-08 -3.85576e-09 10.2786 0.731801 0.0259123 5.23668e-09 1.07566e-08 -3.85575e-09 2.22167 -0.733487 -0.20892 8.61727e-14 -2.46165e-13 -1.10089e-12 -75.8353 22.377 3.70603 15.5701 -8.30375 -28.7479 0.0326083 5.39923 -0.760771 4.82265e-09 4.00162e-09 -3.07666e-09 8.3231e-09 6.9345e-09 -5.35966e-09 4.82265e-09 4.00163e-09 -3.07665e-09 -7.73091 5.47488 -0.417314 4.82265e-09 4.00163e-09 -3.07667e-09 -2.90554 0.965183 -0.102902 4.82263e-09 4.00163e-09 -3.07666e-09 -10.2786 0.731801 -0.0259123 4.82265e-09 4.00163e-09 -3.07667e-09 -2.22167 -0.733487 0.20892 -2.03217e-16 0.0 -3.88251e-19 -0.378789 -22.7501 -10.1294 -0.264825 36.1085 0.615831 -0.945392 -17.1219 -1.28805 2.03217e-16 0.0 3.88251e-19 0.983249 -14.0712 -3.81152 0.21071 34.0451 -0.598527 -0.0917715 -12.1819 -2.13711
50.9335 82.7013 39.4687 -7.545 59.8574 -9.1729 -5.07749 15.5389 -1.5055 4.76018 -5.37669 -0.368603 -11.6594 10.2147 -10.3196 26.8016 21.61 -22.1134 -0.0 0.0 0.0 -0.0 0.0 0.0 6.61836e-14 -9.28396e-14 -1.34795e-12 82.3919 7.10048 -5.32995 -19.7731 -12.7291 38.1313 3.70959e-05 -0.036558 -0.00513457 6.26293e-09 1.22395e-08 -4.52676e-09 1.08349e-08 2.12411e-08 -7.86123e-09 6.26293e-09 1.22395e-08 -4.52678e-09 7.73091 5.47488 0.417314 6.26293e-09 1.22395e-08 -4.52676e-09 2.90554 0.965183 0.102902 6.26293e-09 1.22395e-08 -4.52676e-09 10.2786 0.731801 0.0259123 6.26292e-09 1.22395e-08 -4.52675e-09 2.22167 -0.733487 -0.20892 6.62179e-14 -9.28342e-14 -1.34824e-12 -75.5725 20.5574 3.07654 15.1934 -7.96534 -27.9733 0.047826 6.3561 -0.896809 6.32829e-09 4.84732e-09 -3.29976e-09 1.09223e-08 8.39937e-09 -5.75868e-09 6.32828e-09 4.84733e-09 -3.29975e-09 -7.73091 5.47488 -0.417314 6.32829e-09 4.84732e-09 -3.29976e-09 -2.90554 0.965183 -0.102902 6.32827e-09 4.84732e-09 -3.29975e-09 -10.2786 0.731801 -0.0259123 6.32829e-09 4.84732e-09 -3.29976e-09 -2.22167 -0.733487 0.20892 -2.03217e-16 0.0 -3.88251e-19 -0.599415 -22.6934 -11.1214 -0.263751 36.2743 0.645493 -1.91906 -16.6897 -3.90968 2.03217e-16 0.0 3.88251e-19 1.19774 -13.8948 -3.6164 0.205624 33.7826 -0.596364 0.0398709 -12.0354 -1.70628
50.6914 82.7413 39.6324 -7.2062 59.2122 -8.9531 -5.12727 15.5814 -1.3084 4.63034 -5.40471 -0.320812 -11.6384 10.1852 -10.2962 26.6841 21.5953 -22.0595 -0.0 0.0 0.0 -0.0 0.0 0.0 4.76159e-14 9.83538e-15 -1.39939e-12 82.7161 7.05387 -5.5138 -19.5991 -12.5158 37.7153 -0.000118427 0.310746 0.0436729 6.44546e-09 1.20817e-08 -4.54699e-09 1.11497e-08 2.09711e-08 -7.89754e-09 6.44546e-09 1.20817e-08 -4.54701e-09 7.73091 5.47488 0.417314 6.44546e-09 1.20817e-08 -4.54699e-09 2.90554 0.965183 0.102902 6.44546e-09 1.20817e-08 -4.54699e-09 10.2786 0.731801 0.0259123 6.44545e-09 1.20817e-08 -4.54698e-09 2.22167 -0.733487 -0.20892 4.76548e-14 9.84508e-15 -1.39964e-12 -75.3437 19.1474 2.64247 14.933 -7.73253 -27.451 0.0587855 6.90203 -0.974784 6.79859e-09 4.96128e-09 -3.13461e-09 1.17346e-08 8.59654e-09 -5.47729e-09 6.79858e-09 4.96128e-09 -3.1346e-09 -7.73091 5.47488 -0.417314 6.79859e-09 4.96128e-09 -3.13461e-09 -2.90554 0.965183 -0.102902 6.79857e-09 4.96128e-09 -3.1346e-09 -10.2786 0.731801 -0.0259123 6.79859e-09 4.96128e-09 -3.13461e-09 -2.22167 -0.733487 0.20892 -2.03217e-16 0.0 -3.88251e-19 -0.860048 -22.6507 -11.9574 -0.263716 36.4385 0.669037 -2.68039 -16.1933 -6.06001 2.03217e-16 0.0 3.88251e-19 1.34875 -13.7349 -3.45272 0.200832 33.5364 -0.594841 0.19034 -11.8872 -1.19585
50.4444 82.7873 39.7649 -6.8307 58.5705 -8.5843 -5.25549 15.5631 -1.08061 4.48788 -5.45147 -0.267048 -11.5784 10.2064 -10.269 26.5937 21.6016 -22.0147 -0.0 0.0 0.0 -0.0 0.0 0.0 3.13867e-14 3.52746e-14 -1.15309e-12 83.0646 7.04816 -5.73098 -19.4226 -12.3027 37.2955 -0.000514808 0.650718 0.0914557 5.35408e-09 9.27585e-09 -3.52983e-09 9.26155e-09 1.6104e-08 -6.13219e-09 5.35408e-09 9.27584e-09 -3.52984e-09 7.73091 5.47488 0.417314 5.35408e-09 9.27584e-09 -3.52983e-09 2.90554 0.965183 0.102902 5.35409e-09 9.27584e-09 -3.52983e-09 10.2786 0.731801 0.0259123 5.35408e-09 9.27584e-09 -3.52982e-09 2.22167 -0.733487 -0.20892 3.13916e-14 3.52833e-14 -1.1533e-12 -75.0987 18.3256 2.46877 14.8464 -7.65521 -27.2796 0.0587377 6.86845 -0.970045 5.68322e-09 3.91949e-09 -2.36295e-09 9.81005e-09 6.79143e-09 -4.13311e-09 5.68321e-09 3.91949e-09 -2.36293e-09 -7.73091 5.47488 -0.417314 5.68322e-09 3.91949e-09 -2.36295e-09 -2.90554 0.965183 -0.102902 5.6832e-09 3.91949e-09 -2.36294e-09 -10.2786 0.731801 -0.0259123 5.68322e-09 3.91949e-09 -2.36295e-09 -2.22167 -0.733487 0.20892 -2.03217e-16 0.0 -3.88251e-19 -1.17394 -22.6396 -12.6089 -0.264779 36.5938 0.684353 -3.19864 -15.6116 -7.64908 2.03217e-16 0.0 3.88251e-19 1.40535 -13.6086 -3.33783 0.196581 33.3218 -0.5945 0.370527 -11.7416 -0.564539
50.1851 82.8553 39.9037 -6.5806 57.8757 -8.2466 -5.42032 15.5075 -0.818597 4.322 -5.51453 -0.20541 -11.4842 10.2656 -10.236 26.5103 21.6266 -21.969 -0.0 0.0 0.0 -0.0 0.0 0.0 1.2175e-14 2.76906e-14 -7.00685e-13 83.4296 7.07259 -5.97425 -19.2389 -12.0837 36.8626 -0.00125034 0.996685 0.140092 3.3949e-09 4.53893e-09 -1.773e-09 5.87263e-09 7.88515e-09 -3.08243e-09 3.39491e-09 4.53893e-09 -1.77301e-09 7.73091 5.47488 0.417314 3.39491e-09 4.53893e-09 -1.773e-09 2.90554 0.965183 0.102902 3.39491e-09 4.53893e-09 -1.773e-09 10.2786 0.731801 0.0259123 3.3949e-09 4.53893e-09 -1.773e-09 2.22167 -0.733487 -0.20892 1.2121e-14 2.76952e-14 -7.00868e-13 -74.8431 17.8135 2.45415 14.862 -7.66891 -27.3109 0.0520318 6.48197 -0.914941 3.53863e-09 2.07507e-09 -1.12396e-09 6.10941e-09 3.59578e-09 -1.97162e-09 3.53862e-09 2.07507e-09 -1.12395e-09 -7.73091 5.47488 -0.417314 3.53863e-09 2.07507e-09 -1.12396e-09 -2.90554 0.965183 -0.102902 3.53862e-09 2.07507e-09 -1.12395e-09 -10.2786 0.731801 -0.0259123 3.53864e-09 2.07507e-09 -1.12396e-09 -2.22167 -0.733487 0.20892 -2.03217e-16 0.0 -3.88251e-19 -1.52141 -22.635 -13.1336 -0.266481 36.7386 0.693223 -3.52954 -14.9488 -8.81586 2.03217e-16 0.0 3.88251e-19 1.41335 -13.4871 -3.23679 0.192584 33.1217 -0.594775 0.56745 -11.601 0.142948
49.9585 82.9368 40.0478 -6.2043 57.0973 -7.8878 -5.57425 15.4389 -0.550188 4.15598 -5.5696 -0.14186 -11.4028 10.3102 -10.1987 26.4229 21.6759 -21.9153 -0.0 0.0 0.0 -0.0 0.0 0.0 -8.11214e-15 1.37458e-14 -2.02451e-13 83.7579 7.09681 -6.19749 -19.0486 -11.8601 36.4177 -0.00229308 1.35259 0.190134 1.23128e-09 -4.00613e-10 7.69091e-11 2.13022e-09 -6.86409e-10 1.29498e-10 1.23129e-09 -4.00615e-10 7.68947e-11 7.73091 5.47488 0.417314 1.23129e-09 -4.00617e-10 7.69001e-11 2.90554 0.965183 0.102902 1.23129e-09 -4.00617e-10 7.69005e-11 10.2786 0.731801 0.0259123 1.23129e-09 -4.00617e-10 7.6905e-11 2.22167 -0.733487 -0.20892 -8.22057e-15 1.37457e-14 -2.0261e-13 -74.6125 17.4255 2.49733 14.9218 -7.72186 -27.4299 0.0436272 5.95211 -0.839558 1.18574e-09 1.17212e-10 1.95634e-10 2.04928e-09 2.03612e-10 3.30903e-10 1.18574e-09 1.17205e-10 1.95643e-10 -7.73091 5.47488 -0.417314 1.18574e-09 1.17209e-10 1.9563e-10 -2.90554 0.965183 -0.102902 1.18573e-09 1.17207e-10 1.95635e-10 -10.2786 0.731801 -0.0259123 1.18575e-09 1.17211e-10 1.95628e-10 -2.22167 -0.733487 0.20892 -2.03217e-16 0.0 -3.88251e-19 -1.88948 -22.6242 -13.5534 -0.268774 36.8906 0.698902 -3.73113 -14.2984 -9.66997 2.03217e-16 0.0 3.88251e-19 1.40929 -13.3537 -3.13648 0.18846 32.9144 -0.594842 0.763908 -11.4523 0.866781
